# xmcd CD database file
#
# Track frame offsets:
#	150
#	23170
#	41872
#
# Disc length: 812 seconds
#
# Revision: 0
# Processed by: cddbd v1.5.1PL0 Copyright (c) Steve Scherf et al.
# Submitted via: CDex 1.51
#
DISCID=1f032a03
DTITLE=BENNIE K - Sky
DYEAR=2005
DGENRE=Hip-Hop
TTITLE0=Sky
TTITLE1=OSAGA
TTITLE2=Happy Drive 〜Taste Your Stuff〜
EXTD=YEAR: 2005
EXTT0=
EXTT1=
EXTT2=
PLAYORDER=
